<svg width="23" height="24" viewBox="0 0 23 24" fill="none" xmlns="http://www.w3.org/2000/svg">
<rect x="1" y="1.5" width="21" height="21" rx="4" stroke="#1D70A2" stroke-width="2"/>
<path fill-rule="evenodd" clip-rule="evenodd" d="M6.08333 13.0834H16.9167C17.5147 13.0834 18 12.598 18 12C18 11.402 17.5147 10.9167 16.9167 10.9167H6.08333C5.48533 10.9167 5 11.402 5 12C5 12.598 5.48533 13.0834 6.08333 13.0834Z" fill="#1D70A2"/>
<path fill-rule="evenodd" clip-rule="evenodd" d="M12.5834 17.4167V6.58333C12.5834 5.98533 12.0981 5.5 11.5001 5.5C10.9021 5.5 10.4167 5.98533 10.4167 6.58333V17.4167C10.4167 18.0147 10.9021 18.5 11.5001 18.5C12.0981 18.5 12.5834 18.0147 12.5834 17.4167Z" fill="#1D70A2"/>
</svg>
